<mxfile host="app.diagrams.net" modified="2024-05-16T21:23:12.329Z" agent="Mozilla/5.0 (Windows NT 10.0; Win64; x64) AppleWebKit/537.36 (KHTML, like Gecko) Chrome/124.0.0.0 Safari/537.36" version="24.4.2" etag="RWgKLE69RtWDAFm6PCBx" type="github">
  <diagram name="PÃ¡gina-1" id="1-67qLlMwj-NUGg1IzCY">
    <mxGraphModel>
      <root>
        <mxCell id="0" />
        <mxCell id="1" parent="0" />
      </root>
    </mxGraphModel>
  </diagram>
</mxfile>
